<?xml version="1.0" encoding="UTF-8" standalone="no"?>
<!-- Created with Inkscape (http://www.inkscape.org/) -->

<svg
   xmlns:osb="http://www.openswatchbook.org/uri/2009/osb"
   xmlns:dc="http://purl.org/dc/elements/1.1/"
   xmlns:cc="http://creativecommons.org/ns#"
   xmlns:rdf="http://www.w3.org/1999/02/22-rdf-syntax-ns#"
   xmlns:svg="http://www.w3.org/2000/svg"
   xmlns="http://www.w3.org/2000/svg"
   xmlns:xlink="http://www.w3.org/1999/xlink"
   xmlns:sodipodi="http://sodipodi.sourceforge.net/DTD/sodipodi-0.dtd"
   xmlns:inkscape="http://www.inkscape.org/namespaces/inkscape"
   width="210mm"
   height="297mm"
   viewBox="0 0 744.09448819 1052.3622047"
   id="svg2"
   version="1.1"
   inkscape:version="0.91 r13725"
   sodipodi:docname="cetrti_avto.svg"
   inkscape:export-filename="C:\Users\xklem\Desktop\rps_objekti\cetrti_avto.png"
   inkscape:export-xdpi="90"
   inkscape:export-ydpi="90">
  <defs
     id="defs4">
    <linearGradient
       inkscape:collect="always"
       id="linearGradient4166">
      <stop
         style="stop-color:#f14b6f;stop-opacity:1;"
         offset="0"
         id="stop4168" />
      <stop
         style="stop-color:#f14b6f;stop-opacity:0;"
         offset="1"
         id="stop4170" />
    </linearGradient>
    <linearGradient
       id="linearGradient5620"
       osb:paint="solid">
      <stop
         style="stop-color:#86a41d;stop-opacity:1;"
         offset="0"
         id="stop5622" />
    </linearGradient>
    <radialGradient
       inkscape:collect="always"
       xlink:href="#linearGradient4166"
       id="radialGradient4172"
       cx="328.46072"
       cy="148.04105"
       fx="328.46072"
       fy="148.04105"
       r="84.213094"
       gradientTransform="matrix(2.6007895,-0.05947447,0.01776595,0.77689639,-528.42654,52.563516)"
       gradientUnits="userSpaceOnUse" />
  </defs>
  <sodipodi:namedview
     id="base"
     pagecolor="#ffffff"
     bordercolor="#666666"
     borderopacity="1.0"
     inkscape:pageopacity="0.0"
     inkscape:pageshadow="2"
     inkscape:zoom="1.979899"
     inkscape:cx="291.39126"
     inkscape:cy="869.79562"
     inkscape:document-units="px"
     inkscape:current-layer="layer1"
     showgrid="false"
     inkscape:window-width="1536"
     inkscape:window-height="801"
     inkscape:window-x="-8"
     inkscape:window-y="-8"
     inkscape:window-maximized="1" />
  <metadata
     id="metadata7">
    <rdf:RDF>
      <cc:Work
         rdf:about="">
        <dc:format>image/svg+xml</dc:format>
        <dc:type
           rdf:resource="http://purl.org/dc/dcmitype/StillImage" />
        <dc:title />
      </cc:Work>
    </rdf:RDF>
  </metadata>
  <g
     inkscape:label="Layer 1"
     inkscape:groupmode="layer"
     id="layer1">
    <path
       style="fill:none;fill-rule:evenodd;stroke:#000000;stroke-width:0.7284357px;stroke-linecap:butt;stroke-linejoin:miter;stroke-opacity:0"
       d="m 345.96657,131.20868 c 0.18518,0.64974 0.37037,1.29949 0.55555,1.94922 3.38368,5.35432 5.75914,12.26547 8.61105,19.49225"
       id="path5662"
       inkscape:connector-curvature="0" />
    <path
       style="opacity:1;fill:#a4a0ac;fill-opacity:0.84939761;stroke:#ffffff;stroke-width:0.3679156;stroke-linejoin:round;stroke-miterlimit:4;stroke-dasharray:none;stroke-opacity:1"
       d="m 341.87488,204.56117 c -1.40784,-0.74137 -1.59128,-1.27247 -1.16744,-3.37995 0.20591,-1.02384 0.5662,-2.51227 0.80065,-3.30761 l 0.42626,-1.44608 -2.52879,-0.3149 c -1.39084,-0.17319 -8.59829,-0.31489 -16.01656,-0.31489 -10.30296,0 -15.85164,0.24049 -23.49883,1.01848 -11.70318,1.19063 -26.29331,1.09311 -31.67757,-0.21173 -5.251,-1.27255 -19.17013,-6.09779 -20.61575,-7.14672 -0.78848,-0.57211 -2.11887,-5.18747 -2.90635,-10.08266 -0.59195,-3.67966 -0.92334,-2.11839 -0.93754,-25.70846 -0.0141,-23.4288 0.01,-24.59943 0.62679,-30.45664 1.01932,-9.67954 1.69243,-14.01122 2.76521,-15.17436 0.68444,-0.74209 3.75571,-1.85573 11.96642,-4.33899 6.07511,-1.83738 12.4111,-3.57579 14.07999,-3.863122 4.29261,-0.739079 14.52994,-0.645009 21.54882,0.198022 13.11501,1.57521 29.55035,2.08247 41.83615,1.29123 l 4.75309,-0.30612 -0.64425,-3.898446 c -0.6098,-3.690029 -0.61866,-3.943699 -0.16571,-4.744835 0.26319,-0.465515 1.0392,-0.970866 1.72446,-1.123008 1.8461,-0.409874 2.72659,0.774796 4.05039,5.449614 0.59642,2.106158 1.12445,3.936195 1.17341,4.066755 0.0489,0.13057 4.09778,0.38033 8.99738,0.55504 l 8.90837,0.31765 2.37409,-1.40782 c 2.34643,-1.391429 2.44883,-1.407821 8.7918,-1.407821 9.06075,0 14.01272,1.298711 21.60722,5.666731 2.53575,1.45845 6.11702,5.82535 8.18712,9.98314 4.1953,8.42625 5.40307,12.34849 6.51015,21.14175 1.05014,8.34095 0.65748,22.84003 -0.86983,32.11875 -0.82344,5.00256 -2.01314,8.02759 -5.70685,14.51075 -4.29787,7.54357 -6.28405,9.4183 -13.55816,12.79736 -6.59141,3.06192 -9.05973,3.66211 -15.05275,3.66026 -4.4329,-0.002 -5.33075,-0.14408 -7.91661,-1.25816 -2.77431,-1.19527 -3.37753,-1.26735 -12.36102,-1.47712 l -9.44438,-0.22055 -1.29483,3.64838 c -0.96427,2.71701 -1.58193,3.90533 -2.41947,4.65492 -1.23396,1.10438 -1.22307,1.102 -2.34508,0.51116 z"
       id="path5755"
       inkscape:connector-curvature="0"
       sodipodi:nodetypes="ssscssssssssssssscsssscscsssssssscsscsss" />
    <path
       style="fill:none;fill-rule:evenodd;stroke:#000000;stroke-width:2.18530703;stroke-linecap:butt;stroke-linejoin:miter;stroke-miterlimit:4;stroke-dasharray:none;stroke-opacity:1"
       d="m 247.86296,106.29463 22.2314,-6.719017 7.99332,-1.27981 8.49289,0 10.24145,1.27981 11.24058,0.959857 7.74352,0.31996 12.23977,0 12.73935,-0.31996 -1.24896,-7.678862 1.21865,-2.013409 2.47742,-0.729112 1.82963,1.556442 1.21866,2.785842 1.49876,5.759149 17.48536,0.63991 4.24645,-2.559627 6.24477,-0.319953 8.24312,0.319953 5.74518,1.27981 6.24479,2.879577 4.49623,2.55961 4.74603,6.07909 2.74771,5.4392 2.99749,6.719 1.74854,7.67883 0.99915,8.31877 0.2498,8.31876 -0.2498,8.63871 -0.74937,8.31876 -1.24895,7.3589 -1.99833,5.4392 -2.99748,5.43918 -3.74688,6.07909 -4.99582,4.47934 -5.24562,2.55961 -4.99581,2.23967 -4.99583,1.2798 -10.24143,0 -6.49456,-2.5596 -17.73518,-0.31995 -2.7477,7.3589 -2.24811,1.91971 -1.73447,-0.47607 -1.58599,-1.61499 0.0732,-2.06833 1.24895,-4.79927 -30.4745,-0.31995 -6.74436,0.6399 -12.98914,1.2798 -11.2406,0.31996 -7.74351,-0.63991 -6.24478,-1.2798 -10.74101,-3.51948 -8.24311,-3.19952 -1.99833,-6.71899 -1.24896,-7.99883 0,-9.27861 -0.2498,-13.75794 0,-13.438 0.49959,-13.43799 0.99917,-10.87837 0.99917,-6.0791 z"
       id="path4181-7-4"
       inkscape:connector-curvature="0"
       sodipodi:nodetypes="cccccccccccccccccccccccccccccccccccccccccccccccccccccccccccccccc" />
    <path
       style="fill:none;fill-rule:evenodd;stroke:#000000;stroke-width:0.91054463;stroke-linecap:butt;stroke-linejoin:miter;stroke-miterlimit:4;stroke-dasharray:none;stroke-opacity:1"
       d="m 353.19926,150.72072 -0.3305,-34.01529 -0.99147,-4.15743 -3.30492,-2.26766 -2.97443,-0.37794 -18.17709,1.88972 -5.28787,1.51179 -3.63542,2.64563 -1.65246,4.53536 -0.66099,18.89739 0,10.96048"
       id="path4241-3-9"
       inkscape:connector-curvature="0" />
    <path
       style="fill:none;fill-rule:evenodd;stroke:#000000;stroke-width:0.91054463;stroke-linecap:butt;stroke-linejoin:miter;stroke-miterlimit:4;stroke-dasharray:none;stroke-opacity:1"
       d="m 249.75421,118.61296 15.05159,-2.29869 4.61259,0.68962 1.97136,1.7885 2.15568,3.49848 -0.97106,48.73212 -1.69939,3.10324 -2.22131,1.96537 -4.33339,0.90799 -14.56607,-2.2987 z"
       id="path4277-3-4"
       inkscape:connector-curvature="0"
       sodipodi:nodetypes="ccccccccccc" />
    <path
       style="fill:none;fill-rule:evenodd;stroke:#000000;stroke-width:0.91054463;stroke-linecap:butt;stroke-linejoin:miter;stroke-miterlimit:4;stroke-dasharray:none;stroke-opacity:1"
       d="m 408.20562,179.35614 -2.35701,-2.75661 -0.58925,-5.51325 0.58925,-9.30358 1.37492,-6.54698 2.16059,-3.44578 2.16059,-2.75662 1.37492,-2.06746"
       id="path4543-7"
       inkscape:connector-curvature="0" />
    <path
       style="fill:none;fill-rule:evenodd;stroke:#000000;stroke-width:0.95394766;stroke-linecap:butt;stroke-linejoin:miter;stroke-miterlimit:4;stroke-dasharray:none;stroke-opacity:1"
       d="m 406.00377,112.77556 -2.47948,2.87623 -0.61986,5.75248 0.61986,9.7073 1.44636,6.83107 2.27285,3.59531 2.27286,2.87623 2.83434,2.15719 1.46238,0.11913"
       id="path4543-3-4"
       inkscape:connector-curvature="0"
       sodipodi:nodetypes="cccccccc" />
    <path
       style="fill:none;fill-rule:evenodd;stroke:#000000;stroke-width:0.91054463;stroke-linecap:butt;stroke-linejoin:miter;stroke-miterlimit:4;stroke-dasharray:none;stroke-opacity:1"
       d="m 353.19625,146.60135 -0.3305,34.01528 -0.99146,4.15743 -3.30493,2.26767 -2.97442,0.37794 -18.17709,-1.88973 -5.28787,-1.51178 -3.63543,-2.64563 -1.65245,-4.53537 -0.66099,-18.89739 0,-10.96048"
       id="path4241-3-1-7"
       inkscape:connector-curvature="0" />
    <path
       style="fill:none;fill-rule:evenodd;stroke:#000000;stroke-width:0.91054463;stroke-linecap:butt;stroke-linejoin:miter;stroke-miterlimit:4;stroke-dasharray:none;stroke-opacity:1"
       d="m 280.72504,104.96922 1.12985,-0.20286 25.68603,0.64836 1.23598,1.07996 0.72818,1.67666 0,4.4795 -0.39283,6.2024 -1.96417,3.10119 -24.35572,-0.34458 -2.35701,-1.03373 -0.17092,-13.79304 z"
       id="path4579-1"
       inkscape:connector-curvature="0"
       sodipodi:nodetypes="cccccccccccc" />
    <path
       style="fill:none;fill-rule:evenodd;stroke:#000000;stroke-width:0.91054463;stroke-linecap:butt;stroke-linejoin:miter;stroke-miterlimit:4;stroke-dasharray:none;stroke-opacity:1"
       d="m 279.98399,191.0733 1.12985,0.20286 25.68603,-0.64837 1.23599,-1.07995 0.72818,-1.67666 0,-4.47951 -0.39284,-6.2024 -1.96417,-3.10119 -24.35572,0.34457 -2.35701,1.03374 -0.17092,13.79305 z"
       id="path4579-0-1"
       inkscape:connector-curvature="0"
       sodipodi:nodetypes="cccccccccccc" />
    <path
       style="fill:#ff44ff;fill-opacity:0;stroke:#86a41d;stroke-width:0.45989448;stroke-linejoin:round;stroke-miterlimit:4;stroke-dasharray:none;stroke-opacity:0"
       d="m 327.39046,184.67868 c -8.27813,-0.97072 -10.36475,-1.50457 -13.0011,-3.32625 -1.69734,-1.17284 -1.96968,-1.55446 -2.67086,-3.74254 -0.74583,-2.32737 -0.795,-2.88411 -1.09751,-12.42631 -0.40202,-12.68135 -0.38173,-24.03794 0.0642,-35.9406 0.34254,-9.14265 0.37242,-9.43457 1.16896,-11.4228 1.66467,-4.15515 4.74836,-5.34249 17.48072,-6.73076 11.1241,-1.2129 11.65855,-1.2093 13.92145,0.0939 1.72995,0.99628 1.88691,1.20952 2.42122,3.28932 0.55736,2.16955 0.5714,2.98722 0.57383,33.41157 0.003,36.85398 0.14679,34.89561 -2.69459,36.68312 -2.13222,1.34138 -5.48018,1.36444 -16.16634,0.11135 z"
       id="path4693-8"
       inkscape:connector-curvature="0" />
    <path
       style="fill:#ffffff;fill-rule:evenodd;stroke:#ffffff;stroke-width:1.26100123px;stroke-linecap:butt;stroke-linejoin:miter;stroke-opacity:1"
       d="m 367.98824,125.23776 23.04534,7.63926 8.17739,6.00227"
       id="path5670-8"
       inkscape:connector-curvature="0" />
    <path
       style="fill:#ffffff;fill-rule:evenodd;stroke:#ffffff;stroke-width:1.26100123px;stroke-linecap:butt;stroke-linejoin:miter;stroke-opacity:1"
       d="m 368.36281,164.31889 23.04535,-7.63926 8.17738,-6.00227"
       id="path5670-8-4"
       inkscape:connector-curvature="0" />
    <path
       style="opacity:1;fill:#000000;fill-opacity:0;stroke:#ffffff;stroke-width:0.3679156;stroke-linejoin:round;stroke-miterlimit:4;stroke-dasharray:none;stroke-opacity:1"
       d="m 257.10157,175.05984 c -3.66664,-0.61466 -6.69787,-1.13406 -6.73606,-1.15423 -0.22839,-0.12056 -0.0298,-54.61495 0.19906,-54.61495 0.14768,0 3.17891,-0.45982 6.73606,-1.0218 9.97667,-1.5762 12.38265,-1.09871 14.87122,2.95138 l 0.90372,1.47078 -0.47313,23.94151 c -0.43579,22.0517 -0.51477,24.03436 -1.00056,25.11781 -0.87013,1.94058 -2.97675,3.48995 -5.49978,4.04495 -1.27563,0.28061 -2.32262,0.48138 -2.32662,0.44615 -0.004,-0.0352 -3.00727,-0.56693 -6.67391,-1.1816 z"
       id="path5772"
       inkscape:connector-curvature="0" />
    <path
       style="opacity:1;fill:#ffffff;fill-opacity:0.91715973;stroke:#ffffff;stroke-width:0.3679156;stroke-linejoin:round;stroke-miterlimit:4;stroke-dasharray:none;stroke-opacity:1"
       d="m 261.96265,175.85405 c -0.22917,-0.23199 -2.60415,-0.78481 -5.27774,-1.22849 -2.6736,-0.44367 -5.14739,-0.91146 -5.49731,-1.03953 l -0.63623,-0.23284 0.0807,-26.50372 c 0.0444,-14.57705 0.17015,-26.66051 0.2795,-26.85214 0.36032,-0.63143 8.60425,-1.78347 13.27331,-1.85485 4.23559,-0.0647 4.67941,0.013 5.8501,1.02511 0.69673,0.60236 1.61382,1.73065 2.03797,2.50732 l 0.77118,1.41212 -0.44847,21.858 c -0.41636,20.29307 -0.53799,23.85319 -0.8924,26.12032 -0.25785,1.64943 -2.47705,3.35825 -5.58983,4.30428 -3.43914,1.0452 -3.40137,1.04057 -3.95075,0.48442 z"
       id="path5774"
       inkscape:connector-curvature="0" />
    <path
       style="opacity:1;fill:#ffffff;fill-opacity:0.91715973;stroke:#ffffff;stroke-width:0.3679156;stroke-linejoin:round;stroke-miterlimit:4;stroke-dasharray:none;stroke-opacity:1"
       d="m 335.01768,185.56532 c -12.07262,-1.36667 -15.53858,-2.79644 -16.98868,-7.0081 -0.64629,-1.87707 -0.74336,-2.85691 -1.02906,-10.387 -0.40033,-10.55145 -0.40452,-28.05242 -0.009,-38.82733 0.2735,-7.45634 0.38019,-8.57274 1.00012,-10.46617 1.41686,-4.32743 5.16558,-5.84809 17.58249,-7.13231 10.60827,-1.09716 12.18229,-1.06517 14.24726,0.2896 1.48045,0.97128 1.71785,1.32083 2.20256,3.24317 0.5207,2.06508 0.54327,3.44864 0.54327,33.31028 0,29.12866 -0.0332,31.29659 -0.51049,33.32098 -1.08703,4.61068 -3.68577,5.16845 -17.03815,3.65688 z"
       id="path5776"
       inkscape:connector-curvature="0" />
    <path
       style="opacity:1;fill:#ffffff;fill-opacity:0.91715973;stroke:#ffffff;stroke-width:0.3679156;stroke-linejoin:round;stroke-miterlimit:4;stroke-dasharray:none;stroke-opacity:1"
       d="m 289.82309,120.77282 c -5.43806,-0.17106 -8.49461,-0.44892 -8.68865,-0.78986 -0.19309,-0.3393 -0.2718,-2.9336 -0.22174,-7.3096 l 0.0776,-6.78363 13.05546,0.14946 c 8.40394,0.0962 13.32889,0.33522 13.82288,0.67083 0.97955,0.66546 1.13388,1.8144 0.98375,7.32316 -0.11859,4.35164 -0.14055,4.47176 -1.06452,5.82498 l -0.94343,1.38173 -4.31602,-0.10159 c -2.37381,-0.0559 -8.09121,-0.22033 -12.70532,-0.36548 z"
       id="path5778"
       inkscape:connector-curvature="0" />
    <path
       style="opacity:1;fill:#ffffff;fill-opacity:0.91715973;stroke:#ffffff;stroke-width:0.3679156;stroke-linejoin:round;stroke-miterlimit:4;stroke-dasharray:none;stroke-opacity:1"
       d="m 280.14707,189.83689 c -0.0802,-0.36683 -0.11084,-3.60081 -0.068,-7.18663 l 0.0779,-6.51967 0.71698,-0.33571 c 0.39434,-0.18464 6.2693,-0.49413 13.05547,-0.68777 l 12.33848,-0.35206 0.89941,1.64513 c 0.88312,1.61531 0.90073,1.73678 0.97221,6.7065 l 0.0728,5.06138 -0.83333,0.83605 c -0.74099,0.74342 -2.28785,0.87283 -13.95968,1.1679 -10.98009,0.27759 -13.1502,0.2228 -13.27224,-0.33512 z"
       id="path5780"
       inkscape:connector-curvature="0" />
    <path
       style="opacity:1;fill:#000000;fill-opacity:0.79761903;stroke:#ffffff;stroke-width:0.13007781;stroke-linejoin:round;stroke-miterlimit:4;stroke-dasharray:none;stroke-opacity:1"
       d="m 397.56768,138.52541 c -1.2751,-0.94221 -2.05447,-1.31397 -10.76272,-5.13386 -11.08288,-4.86152 -10.25703,-4.52547 -14.99394,-6.1013 -2.06671,-0.68752 -3.77638,-1.2829 -3.79927,-1.32307 -0.0229,-0.0401 -0.0166,-0.39997 0.0139,-0.79961 0.0485,-0.6337 0.0822,-0.71523 0.26377,-0.63771 0.11452,0.0489 5.31261,1.78178 11.55131,3.85087 l 11.34309,3.76197 4.01862,2.95265 c 2.21024,1.62396 4.03764,2.98603 4.06089,3.02682 0.0546,0.0958 -0.16716,1.27953 -0.25454,1.35873 -0.0366,0.0332 -0.68508,-0.39682 -1.44113,-0.95549 z"
       id="path5782"
       inkscape:connector-curvature="0" />
    <path
       style="opacity:1;fill:#000000;fill-opacity:0.79761903;stroke:#ffffff;stroke-width:0.13007781;stroke-linejoin:round;stroke-miterlimit:4;stroke-dasharray:none;stroke-opacity:1"
       d="m 368.39829,164.3952 c -0.0371,-0.38515 -0.0444,-0.74061 -0.0163,-0.78992 0.0281,-0.0493 1.7892,-0.66584 3.91355,-1.37006 3.26588,-1.08265 5.42477,-1.96044 13.97791,-5.68336 9.92265,-4.31902 10.62105,-4.66187 12.54695,-6.15937 l 0.56549,-0.43971 0.14652,0.61518 c 0.0806,0.33836 0.14651,0.6755 0.14651,0.74921 0,0.14387 -0.0467,0.17927 -5.00863,3.79351 l -3.28999,2.39641 -11.24488,3.70755 c -6.18469,2.03915 -11.34046,3.74653 -11.45727,3.79418 -0.18381,0.075 -0.22146,-0.008 -0.27982,-0.61362 z"
       id="path5784"
       inkscape:connector-curvature="0" />
    <path
       style="opacity:1;fill:#f9ef46;fill-opacity:0.98809521;stroke:#ffffff;stroke-width:0.26015562;stroke-linejoin:round;stroke-miterlimit:4;stroke-dasharray:none;stroke-opacity:1"
       d="m 411.19597,144.8642 c -1.51396,-1.15656 -3.87268,-4.05188 -5.03258,-6.17745 -1.34704,-2.46852 -2.08318,-6.14737 -2.47976,-12.3926 -0.26283,-4.13903 -0.27096,-5.26469 -0.0541,-7.48935 0.254,-2.60498 0.26019,-2.6237 1.23085,-3.7164 l 0.97557,-1.09824 0.66921,1.35145 c 1.25615,2.53677 3.35993,7.55056 3.97769,9.47979 1.23038,3.84237 2.2236,10.06871 2.57062,16.11474 0.11265,1.96264 0.20482,3.86213 0.20482,4.22108 0,0.90139 -0.61289,0.81431 -2.06238,-0.29302 z"
       id="path5786"
       inkscape:connector-curvature="0" />
    <path
       style="opacity:1;fill:#f9ef46;fill-opacity:0.98809521;stroke:#ffffff;stroke-width:0.26015562;stroke-linejoin:round;stroke-miterlimit:4;stroke-dasharray:none;stroke-opacity:1"
       d="m 407.14031,177.18067 c -0.88799,-0.97805 -0.91988,-1.07328 -1.16496,-3.47911 -0.38435,-3.773 0.0295,-10.38529 0.92009,-14.70154 0.59079,-2.86318 0.79946,-3.46085 1.72827,-4.95005 0.581,-0.93153 1.6184,-2.4106 2.30535,-3.28682 0.68695,-0.87621 1.50209,-2.00027 1.81143,-2.49791 l 0.56244,-0.90477 -0.12964,3.79035 c -0.29576,8.64692 -1.16572,16.41871 -2.28655,20.42678 -0.54396,1.94518 -2.35549,6.32963 -2.69779,6.52946 -0.0746,0.0435 -0.5465,-0.37331 -1.04864,-0.92639 z"
       id="path5788"
       inkscape:connector-curvature="0" />
    <path
       style="opacity:1;fill:url(#radialGradient4172);fill-opacity:1;stroke:#8d4242;stroke-width:1.07142854;stroke-linejoin:round;stroke-miterlimit:4;stroke-dasharray:none;stroke-opacity:1"
       d="m 342.13974,203.99166 c -0.98904,-0.69275 -0.99937,-1.56002 -0.0623,-5.23016 0.40284,-1.5778 0.68409,-2.91423 0.625,-2.96985 -0.0591,-0.0556 -7.25924,-0.21056 -16.00031,-0.34432 -15.57628,-0.23834 -16.07782,-0.22415 -25.17857,0.71276 -9.40676,0.96841 -11.65374,1.12103 -18.39286,1.24928 -9.92063,0.1888 -17.65849,-1.46338 -31.10388,-6.64125 l -4.1396,-1.59417 -0.95341,-3.29566 c -1.97371,-6.82252 -2.07446,-8.41703 -2.13769,-33.83137 -0.0505,-20.27814 0.0285,-24.27258 0.59286,-30 0.98646,-10.01086 1.49969,-12.84888 2.50549,-13.85468 1.05943,-1.05942 19.97665,-6.89804 25.59338,-7.89915 4.54675,-0.810394 13.62406,-0.766763 20,0.0961 9.54581,1.2919 18.94378,1.73873 33.79373,1.60675 7.89857,-0.0702 14.47717,-0.24376 14.61911,-0.38571 0.14194,-0.14194 -0.0281,-2.037016 -0.37794,-4.211274 -0.7482,-4.650393 -0.50367,-5.835405 1.16454,-5.643361 1.20271,0.138455 2.09408,1.879834 3.2872,6.421888 l 0.81298,3.094887 2.0109,0.19743 c 1.106,0.10859 5.33633,0.3002 9.40074,0.4258 l 7.38983,0.22837 2.25302,-1.37727 2.25303,-1.377278 6.60714,0.03316 c 8.65317,0.04343 11.10041,0.552467 17.32143,3.602978 2.55357,1.25215 4.89053,2.4728 5.19325,2.71255 0.61408,0.48636 4.16452,4.91255 5.12101,6.38415 0.60653,0.93318 0.59758,0.96958 -0.56326,2.29187 l -1.17957,1.34363 0.0284,7.17242 c 0.0238,6.02252 0.16088,7.81738 0.85466,11.19535 0.72148,3.51284 1.04437,4.35519 2.54642,6.6432 1.86899,2.84694 3.05674,4.19851 4.9135,5.5912 l 1.20015,0.90018 -1.45603,1.84201 c -4.11595,5.20708 -5.09472,8.1263 -5.72715,17.08146 -0.44866,6.35312 -0.0478,10.0935 1.26655,11.81665 1.09354,1.43371 1.13224,1.30537 -1.8869,6.25894 -3.13477,5.14328 -5.79168,7.51456 -11.36553,10.14367 -7.02579,3.31398 -7.7919,3.50871 -14.40814,3.66234 l -5.81976,0.13514 -3.14556,-1.25899 -3.14556,-1.25899 -9.54885,-0.1113 -9.54885,-0.1113 -1.40919,3.75 c -0.77505,2.0625 -1.76906,4.11192 -2.20893,4.55427 -0.74287,0.74707 -0.85629,0.76468 -1.59451,0.24761 z m -47.07109,-12.49798 c 12.77036,-0.24658 12.93557,-0.2741 13.7721,-2.29365 0.28718,-0.69333 0.38581,-2.86055 0.30397,-6.67902 l -0.12116,-5.65266 -1.21114,-1.74479 -1.21115,-1.74479 -12.51197,0.26247 c -10.03525,0.21051 -12.73672,0.36964 -13.64736,0.8039 l -1.13539,0.54143 -0.22916,3.9766 c -0.28302,4.91132 -0.24288,10.46936 0.0841,11.64216 0.27272,0.97823 1.4128,1.43851 3.07638,1.24199 0.58928,-0.0696 6.36314,-0.22875 12.8308,-0.35364 z m 55.48255,-5.08689 c 1.20111,-0.81429 1.95901,-1.61007 2.08939,-2.19383 0.11253,-0.50382 0.37386,-1.55889 0.58073,-2.34461 0.25028,-0.95059 0.37264,-12.06357 0.3657,-33.21428 -0.009,-27.64662 -0.0834,-32.08314 -0.57093,-34.06971 -0.30828,-1.2562 -0.68986,-2.39006 -0.84795,-2.51971 -1.85773,-1.52342 -3.36481,-2.33497 -4.72536,-2.54458 -2.27291,-0.35016 -19.83727,1.55516 -23.04195,2.49951 -1.36392,0.40192 -3.35354,1.34666 -4.42137,2.09942 -1.67201,1.17867 -2.06252,1.68756 -2.81326,3.66614 -0.76941,2.02777 -0.90924,3.178 -1.19103,9.7975 -0.39944,9.38286 -0.40491,32.66009 -0.01,42.20816 0.25579,6.18327 0.41824,7.5472 1.14254,9.59265 0.74303,2.09836 1.07694,2.55167 2.78273,3.77773 2.88306,2.07225 5.80543,2.78805 15.91876,3.89911 10.66356,1.1715 12.14699,1.10574 14.74193,-0.6535 l 0,0 z m -80.35044,-10.91238 c 0.64746,-0.61576 1.5771,-1.80194 2.06586,-2.63595 l 0.88867,-1.5164 0.51364,-24.5319 0.51364,-24.53191 -1.03875,-1.81209 c -1.70219,-2.96948 -3.02492,-3.9734 -5.81804,-4.41573 -2.10805,-0.33385 -3.27841,-0.24961 -9.28571,0.66839 -3.78051,0.57771 -7.31562,1.14171 -7.8558,1.25333 l -0.98214,0.20296 0,28.51078 0,28.51078 2.41072,0.40326 c 11.70116,1.95733 12.67133,2.05532 15.08928,1.52408 1.67699,-0.36844 2.64822,-0.82083 3.49863,-1.6296 z M 370.6921,164.39746 c 0.32841,-0.14448 0.89091,-0.31838 1.25,-0.38643 0.35909,-0.0681 0.69307,-0.15613 0.74217,-0.19571 0.0491,-0.0396 0.25,-0.11215 0.44643,-0.16125 0.19643,-0.0491 0.4375,-0.12947 0.53572,-0.17858 0.0982,-0.0491 0.33928,-0.12946 0.53571,-0.17857 0.19643,-0.0491 0.4375,-0.12946 0.53572,-0.17857 0.0982,-0.0491 0.33928,-0.12946 0.53571,-0.17857 0.19643,-0.0491 0.4375,-0.12946 0.53571,-0.17857 0.0982,-0.0491 0.33929,-0.12947 0.53572,-0.17857 0.19643,-0.0491 0.4375,-0.12947 0.53571,-0.17857 0.0982,-0.0491 0.33929,-0.12947 0.53572,-0.17858 0.19643,-0.0491 0.4375,-0.12946 0.53571,-0.17857 0.0982,-0.0491 0.33929,-0.12946 0.53572,-0.17857 0.19642,-0.0491 0.4375,-0.12946 0.53571,-0.17857 0.0982,-0.0491 0.33929,-0.12946 0.53571,-0.17857 0.19643,-0.0491 0.4375,-0.12947 0.53572,-0.17857 0.0982,-0.0491 0.33928,-0.12947 0.53571,-0.17857 0.19643,-0.0491 0.4375,-0.12947 0.53572,-0.17858 0.0982,-0.0491 0.33928,-0.12946 0.53571,-0.17857 0.19643,-0.0491 0.4375,-0.12946 0.53572,-0.17857 0.0982,-0.0491 0.33928,-0.12946 0.53571,-0.17857 0.19643,-0.0491 0.4375,-0.12946 0.53571,-0.17857 0.0982,-0.0491 0.33929,-0.12947 0.53572,-0.17857 0.19643,-0.0491 0.39732,-0.12132 0.44643,-0.16047 0.0491,-0.0392 0.47845,-0.1428 0.95411,-0.23032 0.47565,-0.0875 1.07833,-0.33634 1.33929,-0.55291 0.26095,-0.21657 0.47445,-0.2896 0.47445,-0.16229 0,0.12731 0.48215,-0.0179 1.07143,-0.32258 0.58929,-0.30474 1.07143,-0.4499 1.07143,-0.32259 0,0.12731 0.26577,0.0109 0.5906,-0.25869 0.32484,-0.26958 0.68645,-0.4519 0.80358,-0.40514 0.39825,0.15898 1.46296,-0.31029 1.46296,-0.64479 0,-0.18319 0.2009,-0.33565 0.44643,-0.33878 0.24554,-0.003 1.00893,-0.48357 1.69643,-1.06762 0.6875,-0.58405 1.44411,-1.22434 1.68135,-1.42287 0.23725,-0.19852 0.55868,-0.36542 0.71429,-0.37087 0.15561,-0.005 0.75168,-0.4876 1.3246,-1.07143 0.57291,-0.58383 1.25595,-1.06151 1.51786,-1.06151 0.51843,0 0.59401,-0.34882 0.26266,-1.2123 -0.18218,-0.47476 -0.37878,-0.43261 -1.33928,0.28714 -1.54645,1.15881 -4.02535,2.37081 -4.29583,2.10034 -0.12253,-0.12254 -0.22279,-0.0258 -0.22279,0.21495 0,0.24076 -0.16072,0.33841 -0.35714,0.21701 -0.19643,-0.1214 -0.35715,-0.0505 -0.35715,0.1575 0,0.20802 -0.12053,0.35185 -0.26785,0.31963 -0.55171,-0.12067 -2.23215,0.5062 -2.23215,0.83267 0,0.18672 -0.16071,0.24017 -0.35714,0.11877 -0.19643,-0.1214 -0.35714,-0.0505 -0.35714,0.1575 0,0.20802 -0.12054,0.35919 -0.26786,0.33593 -0.79493,-0.12552 -1.53516,0.11061 -2.09184,0.66729 -0.34375,0.34375 -0.71684,0.59184 -0.82908,0.55132 -0.42423,-0.15316 -1.81122,0.34314 -1.81122,0.64811 0,0.17513 -0.12054,0.29206 -0.26786,0.25984 -0.5517,-0.12067 -2.23214,0.5062 -2.23214,0.83267 0,0.18672 -0.16072,0.24017 -0.35715,0.11877 -0.19642,-0.1214 -0.35714,-0.0847 -0.35714,0.0815 0,0.16622 -0.34715,0.32836 -0.77143,0.36032 -0.4243,0.032 -0.90398,0.26706 -1.06597,0.52244 -0.16198,0.25537 -0.29698,0.33813 -0.29999,0.18389 -0.003,-0.15423 -0.36707,-0.0799 -0.80904,0.16516 -0.44196,0.24508 -0.9241,0.41144 -1.07143,0.36971 -0.14732,-0.0417 -0.26785,0.0848 -0.26785,0.28127 0,0.19643 -0.12054,0.33163 -0.26786,0.30044 -0.14732,-0.0312 -0.58929,0.0746 -0.98214,0.23507 -2.58401,1.05549 -4.10715,1.56721 -4.10715,1.37983 0,-0.1194 -0.24107,-0.017 -0.53571,0.22752 -0.29464,0.24453 -0.53571,0.32489 -0.53571,0.17857 0,-0.14632 -0.2009,-0.0993 -0.44643,0.10447 -0.24554,0.20377 -0.56329,0.39825 -0.7061,0.43217 -1.41912,0.337 -1.70462,0.52659 -1.70462,1.13199 0,0.5517 0.19966,0.66365 0.98215,0.55068 0.54017,-0.078 1.25084,-0.26001 1.57925,-0.40449 z m 28.70582,-25.59269 c 0.13088,-0.21175 -0.10841,-0.65371 -0.53173,-0.98214 -0.42332,-0.32842 -1.06843,-0.83821 -1.43356,-1.13285 -0.36513,-0.29464 -1.01671,-0.77679 -1.44796,-1.07143 -0.43124,-0.29464 -1.28998,-0.97511 -1.90831,-1.51215 -0.61833,-0.53704 -1.26723,-0.97901 -1.442,-0.98214 -0.17477,-0.003 -0.5006,-0.25575 -0.72407,-0.56135 -0.22346,-0.30561 -0.72332,-0.61474 -1.1108,-0.68697 -0.38748,-0.0722 -0.74468,-0.1637 -0.79379,-0.20328 -0.0491,-0.0396 -0.25,-0.11214 -0.44643,-0.16125 -0.19642,-0.0491 -0.39732,-0.12132 -0.44642,-0.16047 -0.0491,-0.0392 -0.42899,-0.13525 -0.84418,-0.21354 -0.41518,-0.0783 -1.21875,-0.33414 -1.78571,-0.56854 -0.56695,-0.23439 -1.15136,-0.45973 -1.29869,-0.50074 -0.14732,-0.041 -0.34821,-0.11475 -0.44642,-0.16385 -0.0982,-0.0491 -0.33929,-0.12947 -0.53572,-0.17858 -0.19643,-0.0491 -0.4375,-0.12946 -0.53571,-0.17857 -0.0982,-0.0491 -0.33929,-0.12946 -0.53572,-0.17857 -0.19643,-0.0491 -0.4375,-0.12946 -0.53571,-0.17857 -0.19319,-0.0966 -0.19928,-0.0984 -1.78572,-0.52479 -0.58928,-0.1584 -1.27232,-0.44622 -1.51785,-0.63961 -0.24554,-0.1934 -0.44643,-0.24211 -0.44643,-0.10825 0,0.13386 -0.20089,0.11788 -0.44643,-0.0355 -0.24554,-0.1534 -0.65987,-0.31121 -0.92075,-0.35072 -0.26087,-0.0395 -0.74301,-0.19085 -1.07143,-0.33634 -0.32841,-0.14548 -0.71764,-0.29849 -0.86496,-0.34001 -0.14732,-0.0415 -0.30804,-0.10752 -0.35715,-0.14667 -0.0491,-0.0392 -0.42898,-0.13524 -0.84417,-0.21354 -0.41518,-0.0783 -1.21875,-0.33199 -1.78571,-0.56376 -0.56696,-0.23178 -1.34316,-0.48093 -1.7249,-0.55369 -0.38174,-0.0727 -1.13548,-0.35248 -1.67498,-0.62162 -1.07383,-0.53571 -1.38095,-0.41611 -1.38095,0.53776 0,0.40982 0.46399,0.77651 1.33929,1.05844 0.7366,0.23727 1.54017,0.59084 1.78571,0.78572 0.24554,0.19488 0.44643,0.23461 0.44643,0.0883 0,-0.14631 0.24107,-0.066 0.53571,0.17858 0.29465,0.24453 0.53572,0.32489 0.53572,0.17857 0,-0.14632 0.24107,-0.066 0.53571,0.17857 0.29464,0.24453 0.53572,0.32489 0.53572,0.17857 0,-0.14632 0.24107,-0.066 0.53571,0.17857 0.29464,0.24453 0.53571,0.32489 0.53571,0.17857 0,-0.14631 0.24108,-0.066 0.53572,0.17857 0.29464,0.24454 0.53817,0.30439 0.54118,0.13302 0.003,-0.17137 0.12354,-0.12676 0.26786,0.0992 0.14431,0.2259 0.58382,0.46697 0.97667,0.53571 0.39286,0.0687 0.80911,0.25357 0.925,0.41073 0.11588,0.15716 0.55785,0.3119 0.98214,0.34386 0.42429,0.032 0.77143,0.19411 0.77143,0.36033 0,0.16622 0.16072,0.20289 0.35715,0.0815 0.19643,-0.1214 0.35714,-0.0663 0.35714,0.12256 0,0.1888 0.48214,0.51135 1.07143,0.71678 0.58928,0.20543 1.07143,0.29003 1.07143,0.188 0,-0.10203 0.25255,0.067 0.56122,0.37572 0.50132,0.50132 1.25495,0.72559 2.02806,0.60352 0.14732,-0.0232 0.26786,0.12791 0.26786,0.33593 0,0.20802 0.16071,0.27889 0.35714,0.15749 0.19643,-0.1214 0.35715,-0.0663 0.35715,0.12256 0,0.4109 1.99232,1.15892 2.29106,0.86018 0.11491,-0.11491 0.20894,-0.012 0.20894,0.22881 0,0.24076 0.16071,0.33842 0.35714,0.21702 0.19643,-0.1214 0.35714,-0.0679 0.35714,0.11878 0,0.32647 1.68044,0.95333 2.23214,0.83266 0.14733,-0.0322 0.26786,0.11162 0.26786,0.31964 0,0.20802 0.14699,0.28738 0.32664,0.17635 0.17965,-0.11104 0.38054,-0.0716 0.44643,0.0876 0.0659,0.15922 1.20461,0.74683 2.5305,1.3058 1.3259,0.55898 2.41072,1.14114 2.41072,1.29369 0,0.23813 0.59258,0.49368 1.49678,0.64547 0.13572,0.0228 0.35385,-0.13182 0.48472,-0.34358 z m -90.66191,-18.2757 c 1.05892,-1.7833 1.12522,-2.12096 1.3556,-6.90363 0.26098,-5.41804 0.006,-6.76163 -1.54695,-8.14492 -0.69623,-0.62024 -1.8168,-0.70118 -14.16019,-1.02276 -10.02136,-0.26109 -13.52895,-0.24562 -13.89873,0.0613 -0.84298,0.69961 -1.00162,2.81811 -0.73373,9.79826 l 0.25849,6.73525 1.47082,0.66792 c 1.34468,0.61064 2.52868,0.66859 13.80606,0.67576 l 12.33526,0.008 1.11337,-1.875 z"
       id="path5798"
       inkscape:connector-curvature="0" />
    <path
       style="opacity:1;fill:#b7e9d7;fill-opacity:0.94117647;stroke:#8d4242;stroke-width:1.07142854;stroke-linejoin:round;stroke-miterlimit:4;stroke-dasharray:none;stroke-opacity:1"
       d="m 340.19387,186.20988 c -9.97127,-0.99273 -15.23478,-1.92761 -17.85714,-3.1717 -2.12366,-1.0075 -2.69844,-1.45619 -3.55906,-2.77836 -1.58141,-2.42947 -1.68612,-3.9342 -1.86935,-26.86125 -0.19831,-24.81413 0.0883,-32.23319 1.35911,-35.18738 1.79656,-4.17623 6.21627,-5.60047 21.56749,-6.95007 8.24422,-0.72479 10.20071,-0.24763 11.78752,2.87478 0.69909,1.37563 0.71429,2.11213 0.71429,34.61981 0,32.50332 -0.0153,33.24466 -0.71429,34.63292 -1.10648,2.19755 -2.55964,2.83752 -6.59837,2.90589 -1.87089,0.0317 -4.04449,-0.006 -4.8302,-0.0846 z"
       id="path5800"
       inkscape:connector-curvature="0" />
    <path
       style="opacity:1;fill:#b7e9d7;fill-opacity:0.94117647;stroke:#8d4242;stroke-width:1.09970272;stroke-linejoin:round;stroke-miterlimit:4;stroke-dasharray:none;stroke-opacity:1"
       d="m 262.15765,177.8678 c -0.84588,-0.48607 -4.23918,-1.14827 -5.95699,-1.16251 -0.43169,-0.004 -0.88293,-0.17405 -1.00278,-0.37883 -0.11984,-0.20479 -0.59181,-0.27323 -1.04884,-0.15207 -0.45704,0.12114 -0.93857,0.0363 -1.07009,-0.18836 -0.13725,-0.23453 -0.63241,-0.30436 -1.1622,-0.16394 -0.64715,0.17154 -0.84758,0.11565 -0.67049,-0.18698 0.14925,-0.25504 0.0213,-0.43164 -0.31268,-0.43164 -0.51112,0 -0.56178,-2.64094 -0.52861,-27.55186 0.0202,-15.15351 0.17757,-27.9432 0.34977,-28.42152 0.21433,-0.59534 0.71197,-0.9487 1.57763,-1.12022 0.69551,-0.1378 1.26457,-0.41466 1.26457,-0.61526 0,-0.20926 0.45611,-0.25892 1.07009,-0.1165 0.70095,0.16259 1.07008,0.1 1.07008,-0.1815 0,-0.29496 0.53135,-0.35501 1.69431,-0.19144 0.93187,0.13106 1.509,0.0991 1.28252,-0.0711 -0.50397,-0.37865 9.72012,-0.34309 10.85032,0.0378 0.44425,0.14969 0.72692,0.41028 0.62815,0.57909 -0.0987,0.16879 0.0595,0.51639 0.35151,0.77242 0.29212,0.25604 0.53113,0.32241 0.53113,0.1475 0,-0.17492 0.38395,0.2705 0.85325,0.98984 0.46927,0.71931 0.78084,1.43499 0.69234,1.59039 -0.0884,0.15539 0.01,0.28253 0.21799,0.28253 0.25923,0 0.32018,1.87385 0.19299,5.93321 -0.10226,3.26328 -0.35079,14.49402 -0.55229,24.95721 -0.20151,10.46319 -0.52222,19.6455 -0.7127,20.40514 -0.2583,1.03014 -0.76596,1.67472 -1.99736,2.53615 -2.60547,1.82262 -6.64618,3.25728 -7.61162,2.70251 z"
       id="path5802"
       inkscape:connector-curvature="0" />
    <path
       style="opacity:1;fill:#b7e9d7;fill-opacity:0.94117647;stroke:#8d4242;stroke-width:1.07142854;stroke-linejoin:round;stroke-miterlimit:4;stroke-dasharray:none;stroke-opacity:1"
       d="m 293.97221,121.01991 c -11.44363,-0.36843 -12.58685,-0.52184 -12.92444,-1.73429 -0.35754,-1.28411 -0.36277,-12.58518 -0.006,-13.14783 0.24799,-0.39119 2.62255,-0.41631 13.44832,-0.14229 l 13.14716,0.33278 0.6902,0.85236 c 0.62634,0.7735 0.67844,1.33442 0.56312,6.06265 -0.12167,4.98849 -0.16906,5.27374 -1.11334,6.70064 -0.94001,1.42045 -1.06561,1.48776 -2.67763,1.43507 -0.93025,-0.0304 -5.93754,-0.192 -11.12731,-0.35909 z"
       id="path5804"
       inkscape:connector-curvature="0" />
    <path
       style="opacity:1;fill:#b7e9d7;fill-opacity:0.94117647;stroke:#8d4242;stroke-width:1.07142854;stroke-linejoin:round;stroke-miterlimit:4;stroke-dasharray:none;stroke-opacity:1"
       d="m 280.25339,190.12476 c -0.42319,-0.42319 -0.27688,-13.98149 0.15374,-14.24763 0.44848,-0.27718 8.30647,-0.71226 18.71531,-1.03623 l 7.14286,-0.22232 0.88228,1.53285 c 0.80987,1.40706 0.89354,1.97713 1.01955,6.94654 l 0.13727,5.41369 -0.92597,0.60671 c -0.72032,0.47197 -2.25549,0.67374 -6.91241,0.90851 -7.25685,0.36584 -19.88352,0.42699 -20.21263,0.0979 z"
       id="path5806"
       inkscape:connector-curvature="0" />
  </g>
</svg>
