<?xml version="1.0" encoding="UTF-8" standalone="no"?>
<!-- Created with Inkscape (http://www.inkscape.org/) -->

<svg
   xmlns:osb="http://www.openswatchbook.org/uri/2009/osb"
   xmlns:dc="http://purl.org/dc/elements/1.1/"
   xmlns:cc="http://creativecommons.org/ns#"
   xmlns:rdf="http://www.w3.org/1999/02/22-rdf-syntax-ns#"
   xmlns:svg="http://www.w3.org/2000/svg"
   xmlns="http://www.w3.org/2000/svg"
   xmlns:xlink="http://www.w3.org/1999/xlink"
   xmlns:sodipodi="http://sodipodi.sourceforge.net/DTD/sodipodi-0.dtd"
   xmlns:inkscape="http://www.inkscape.org/namespaces/inkscape"
   width="210mm"
   height="297mm"
   viewBox="0 0 744.09448819 1052.3622047"
   id="svg2"
   version="1.1"
   inkscape:version="0.91 r13725"
   sodipodi:docname="drugi_avto.svg"
   inkscape:export-filename="C:\Users\xklem\Desktop\rps_objekti\drugi_avto.png"
   inkscape:export-xdpi="90"
   inkscape:export-ydpi="90">
  <defs
     id="defs4">
    <linearGradient
       inkscape:collect="always"
       id="linearGradient4154">
      <stop
         style="stop-color:#00d2ff;stop-opacity:1;"
         offset="0"
         id="stop4156" />
      <stop
         style="stop-color:#00d2ff;stop-opacity:0;"
         offset="1"
         id="stop4158" />
    </linearGradient>
    <linearGradient
       id="linearGradient5620"
       osb:paint="solid">
      <stop
         style="stop-color:#86a41d;stop-opacity:1;"
         offset="0"
         id="stop5622" />
    </linearGradient>
    <linearGradient
       inkscape:collect="always"
       xlink:href="#linearGradient4154"
       id="linearGradient4160"
       x1="215.05164"
       y1="285.14309"
       x2="459.57029"
       y2="285.14309"
       gradientUnits="userSpaceOnUse" />
  </defs>
  <sodipodi:namedview
     id="base"
     pagecolor="#ffffff"
     bordercolor="#666666"
     borderopacity="1.0"
     inkscape:pageopacity="0.0"
     inkscape:pageshadow="2"
     inkscape:zoom="1.979899"
     inkscape:cx="254.37624"
     inkscape:cy="829.08566"
     inkscape:document-units="px"
     inkscape:current-layer="layer1"
     showgrid="false"
     inkscape:window-width="1536"
     inkscape:window-height="801"
     inkscape:window-x="-8"
     inkscape:window-y="-8"
     inkscape:window-maximized="1" />
  <metadata
     id="metadata7">
    <rdf:RDF>
      <cc:Work
         rdf:about="">
        <dc:format>image/svg+xml</dc:format>
        <dc:type
           rdf:resource="http://purl.org/dc/dcmitype/StillImage" />
        <dc:title />
      </cc:Work>
    </rdf:RDF>
  </metadata>
  <g
     inkscape:label="Layer 1"
     inkscape:groupmode="layer"
     id="layer1">
    <path
       style="fill:#a0ccff;fill-opacity:0.65680476;stroke:#86a41d;stroke-width:0.65879011;stroke-linejoin:round;stroke-miterlimit:4;stroke-dasharray:none;stroke-opacity:0"
       d="m 372.65925,323.66575 c -21.42102,-1.23688 -29.41177,-3.02105 -32.40451,-7.23526 -1.42156,-2.00175 -1.53845,-2.59864 -2.0856,-10.65006 -0.74501,-10.96275 -0.74486,-32.24756 3e-4,-42.81632 0.53017,-7.51926 0.70821,-8.44605 2.00793,-10.45209 1.72208,-2.65794 5.58236,-4.43149 12.13503,-5.57529 5.43662,-0.94899 39.01361,-3.02901 43.63864,-2.70332 4.62062,0.32537 8.22909,1.88476 9.4738,4.09408 0.90515,1.60659 0.96735,3.9181 0.96735,35.95467 0,39.76513 0.32529,37.21239 -4.98095,39.08683 -3.755,1.32647 -9.83255,1.3892 -28.75199,0.29676 z"
       id="path4166"
       inkscape:connector-curvature="0" />
    <path
       style="fill:#001b37;fill-opacity:0.65490196;stroke:#86a41d;stroke-width:0.73737001;stroke-linejoin:round;stroke-miterlimit:4;stroke-dasharray:none;stroke-opacity:0"
       d="m 283.85968,329.32945 c -0.42044,-1.33512 -0.0326,-17.11459 0.43461,-17.68396 0.18451,-0.22485 11.34141,-0.67922 24.79311,-1.00971 l 24.45763,-0.60089 1.78526,2.1086 1.78527,2.1086 -0.15045,6.84526 -0.15044,6.84526 -1.58082,0.92187 c -1.26672,0.7387 -6.49396,0.98474 -26.30597,1.23814 -22.76575,0.2912 -24.75234,0.22994 -25.0682,-0.77317 z"
       id="path4178"
       inkscape:connector-curvature="0" />
    <path
       style="fill:#001b37;fill-opacity:0.65680476;stroke:#86a41d;stroke-width:0.69757903;stroke-linejoin:round;stroke-miterlimit:4;stroke-dasharray:none;stroke-opacity:0"
       d="m 307.72507,257.42925 c -16.06536,-0.22036 -22.48329,-0.49566 -22.94249,-0.98411 -0.73997,-0.78711 -1.3821,-13.03736 -0.8103,-15.4583 l 0.3751,-1.5881 25.81883,0.39625 c 31.25061,0.47957 28.58031,-0.31817 28.411,8.48775 l -0.11468,5.96418 -1.9075,1.86965 c -1.60276,1.57095 -2.27633,1.84959 -4.21625,1.74414 -1.26983,-0.069 -12.34599,-0.26318 -24.61371,-0.43146 z"
       id="path4170"
       inkscape:connector-curvature="0" />
    <path
       style="fill:#001b37;fill-opacity:0.65680476;stroke:#86a41d;stroke-width:0.68503577;stroke-linejoin:round;stroke-miterlimit:4;stroke-dasharray:none;stroke-opacity:0"
       d="m 242.78758,315.07737 c -7.16409,-0.65398 -13.46211,-1.20665 -13.99561,-1.22818 -0.91178,-0.0368 -0.96999,-1.86022 -0.96999,-30.38253 0,-23.89897 0.14715,-30.34916 0.69285,-30.37058 0.38107,-0.0149 6.99129,-0.57576 14.68939,-1.24622 19.46111,-1.69494 24.25733,-1.12703 28.64942,3.39233 l 1.62911,1.67632 -0.94961,26.66373 c -0.93271,26.18936 -0.97156,26.68677 -2.18339,27.95756 -2.05862,2.15879 -5.99945,3.77399 -10.40824,4.26595 -3.0576,0.3412 -7.50655,0.15229 -17.15393,-0.72838 z"
       id="path4168"
       inkscape:connector-curvature="0" />
    <path
       style="fill:none;fill-rule:evenodd;stroke:#000000;stroke-width:3;stroke-linecap:butt;stroke-linejoin:miter;stroke-miterlimit:4;stroke-dasharray:none;stroke-opacity:1"
       d="m 222.68581,241.98997 31.48888,-6.97195 11.32186,-1.32798 12.02945,0 14.50613,1.32798 15.92133,0.996 10.96803,0.332 17.33659,0 18.0442,-0.332 -1.76905,-7.96793 1.72612,-2.08921 3.50905,-0.75656 2.59152,1.61504 1.72612,2.89071 2.12286,5.97595 24.76652,0.664 6.01474,-2.65598 8.84519,-0.332 11.67566,0.332 8.13757,1.32798 8.8452,2.98798 6.36853,2.65596 6.72235,6.30795 3.89188,5.64395 4.24569,6.97193 2.47666,7.9679 1.41522,8.63192 0.35381,8.63191 -0.35381,8.96391 -1.06142,8.63192 -1.76903,7.63592 -2.83047,5.64395 -4.24568,5.64394 -5.30713,6.30793 -7.07615,4.64796 -7.42996,2.65597 -7.07615,2.32398 -7.07616,1.32798 -14.50612,0 -9.19899,-2.65596 -25.12035,-0.332 -3.89189,7.63593 -3.18426,1.99198 -2.45673,-0.49399 -2.24641,-1.6758 0.10366,-2.14618 1.76904,-4.97994 -43.16453,-0.332 -9.55281,0.664 -18.398,1.32798 -15.92135,0.332 -10.96803,-0.664 -8.84519,-1.32798 -15.21373,-3.65197 -11.67566,-3.31996 -2.83046,-6.97193 -1.76905,-8.29993 0,-9.6279 -0.35381,-14.27585 0,-13.94387 0.70763,-13.94385 1.41523,-11.28788 1.41524,-6.30795 z"
       id="path4181-7"
       inkscape:connector-curvature="0"
       sodipodi:nodetypes="cccccccccccccccccccccccccccccccccccccccccccccccccccccccccccccccc" />
    <path
       style="fill:url(#linearGradient4160);fill-opacity:1;stroke:#000000;stroke-width:5;stroke-linejoin:round;stroke-miterlimit:4;stroke-dasharray:none;stroke-opacity:1"
       d="m 354.99195,343.32804 c -1.12663,-0.85522 -1.11041,-1.51082 0.12627,-5.10528 0.55558,-1.61484 1.01015,-3.01412 1.01015,-3.10953 0,-0.0954 -10.6601,-0.17347 -23.68911,-0.17347 -19.21256,0 -26.34706,0.19959 -37.75445,1.0562 -16.23232,1.21891 -34.40526,1.11183 -42.38656,-0.24978 -5.59394,-0.95432 -15.47029,-3.29392 -24.0215,-5.69044 l -6.38077,-1.78824 -1.30779,-3.35613 c -2.94422,-7.55563 -2.99766,-8.19337 -3.03214,-36.18609 -0.0295,-23.96256 0.0449,-26.26961 1.06674,-33.08249 1.30945,-8.73021 1.82409,-10.66458 3.15868,-11.87236 1.32939,-1.20308 29.81488,-7.57567 38.38241,-8.58667 7.28661,-0.85985 15.56564,-0.95773 21.71828,-0.25679 12.50535,1.42469 27.08991,2.01944 49.62374,2.02362 19.7195,0.004 23.61232,-0.11031 23.61232,-0.69128 0,-0.38262 -0.3677,-2.32388 -0.81711,-4.31391 -0.77099,-3.41407 -0.76657,-3.67409 0.0783,-4.60765 2.40672,-2.65938 5.86998,-0.26849 7.87052,5.43349 l 1.20207,3.42611 3.78807,0.31279 c 2.08344,0.17204 8.02137,0.3425 13.1954,0.37881 9.01006,0.0632 9.52791,0.0127 12.2625,-1.19668 2.7228,-1.20414 3.30527,-1.26265 12.56349,-1.262 10.96014,7.6e-4 15.63108,0.62958 23.08128,3.1072 7.51844,2.50031 10.62685,4.10495 13.31295,6.87249 l 2.44226,2.5163 -1.4998,1.06796 c -2.16468,1.54138 -1.6682,5.1107 -0.90602,11.54213 0.82184,6.93486 2.60502,11.65829 5.54015,14.16069 3.75087,3.19788 4.68956,5.34518 7.53004,6.48351 2.19807,0.88089 2.40386,1.10449 2.27284,2.46958 -0.11579,1.2065 0.36273,2.41937 -2.68213,4.71869 -2.08344,1.57331 -4.19672,3.1545 -4.91444,3.95025 -1.9771,2.19207 -4.07141,6.74036 -4.75994,12.63247 -0.56986,4.87667 -1.05414,4.04211 -0.0619,8.4432 0,0 1.3314,2.91778 2.44733,3.65627 1.11593,0.73849 1.4922,2.40281 1.49091,2.60721 -0.002,0.2044 -1.57798,2.21072 -3.50376,4.45849 -4.55586,5.31761 -8.43079,7.81191 -16.57438,10.66899 -8.93098,3.13332 -14.49738,4.18452 -22.1582,4.18452 -5.50831,0 -6.9078,-0.18632 -11.38107,-1.51523 -5.0817,-1.50966 -5.14756,-1.51523 -17.90787,-1.51523 l -12.80741,0 -1.8231,3.66181 c -1.0027,2.01399 -2.31244,4.05449 -2.91054,4.53445 -1.29376,1.03822 -3.27076,1.12265 -4.49671,0.19202 z m -21.27413,-14.88222 c 2.26527,-1.16645 2.6279,-1.61122 2.73759,-7.98137 l -0.70223,-5.52859 -1.81304,-1.46066 -1.81306,-1.54995 -22.08434,-0.11947 c -16.296,-0.0882 -22.88819,0.68942 -24.7883,0.70353 l -2.34681,0.64441 -0.13907,6.97843 c -0.0887,4.45048 0.61661,8.00335 0.92706,8.81996 l 1.33399,1.03796 24.05889,-0.37374 c 19.75779,-0.30693 24.43028,-0.87615 25.52218,-1.4384 z m 66.38406,-5.06514 c 2.99751,-1.19999 3.85223,-1.91373 4.89835,-4.4912 1.09566,-2.69954 0.0943,-2.97928 0.22003,-34.43187 l 0.12627,-31.58574 -0.62633,-2.72968 c -0.63803,-2.78072 -0.87308,-2.77696 -4.24831,-4.10118 -4.29149,-1.68371 -7.06434,-1.74124 -27.04466,-0.53919 -16.12964,0.97039 -21.31903,1.23216 -25.88516,3.07153 -4.16338,1.67714 -4.7573,1.24412 -6.49181,4.3507 -1.38297,2.47697 -1.4733,3.29503 -2.02752,12.94653 -0.73708,12.8361 0.57761,26.50534 0.11053,38.81876 l 0.4451,9.52433 1.93843,2.43494 c 4.73628,3.52946 9.21289,5.76918 33.17313,7.29783 17.45026,1.11332 20.94332,1.22315 25.41195,-0.56576 z m -140.33399,-9.08434 c 4.98684,-0.66533 6.90196,-1.92111 9.26821,-4.14605 l 1.80114,-1.69359 0.78846,-25.17584 0.91472,-25.11269 -1.7572,-1.84178 c -4.08336,-4.27991 -8.12687,-3.76454 -26.50037,-2.98227 -6.78231,0.28876 -12.33299,0.0578 -12.33299,0.0578 l -2.8915,1.15917 -0.0893,28.88375 c -0.0725,23.46296 0.014,29.28008 0.51143,29.31183 0.34724,0.0222 6.1493,0.43552 12.8163,1.07291 6.66701,0.63738 11.03135,1.12433 11.47332,1.15926 0.44196,0.0349 3.66182,-0.38088 5.99777,-0.69253 z m 76.23061,-58.69291 0.82818,-0.62897 0.92847,-5.99258 -0.23226,-5.189 -0.68016,-1.77004 c -0.5986,-1.55778 -2.2649,-1.55496 -5.24884,-1.78262 -5.0475,-0.38509 -44.27817,-0.88198 -45.50644,-0.56078 -1.5282,0.39963 -1.92476,1.87309 -1.7436,9.89004 0.15988,7.07533 0.75128,6.70298 1.80292,7.06777 1.35512,0.47006 16.00347,0.24874 33.19769,1.20781 l 14.21873,-0.005 1.2746,-1.70039 z"
       id="path4596"
       inkscape:connector-curvature="0"
       sodipodi:nodetypes="csssssscsssssscsssscsssssscsssssssscscssssscsscccscccsscsccscsssscssssssscssscscccssccscscsccccssssssccc"
       inkscape:export-xdpi="90"
       inkscape:export-ydpi="90" />
    <path
       style="fill:none;fill-rule:evenodd;stroke:#000000;stroke-width:1.25;stroke-linecap:butt;stroke-linejoin:miter;stroke-miterlimit:4;stroke-dasharray:none;stroke-opacity:1"
       d="m 405.66988,286.86584 -0.60094,-35.25569 -1.80278,-4.30903 -6.0093,-2.35037 -5.40836,-0.39172 -33.05117,1.95864 -9.61487,1.56692 -6.61025,2.74211 -3.00464,4.70074 -1.20187,19.5865 0,11.36017"
       id="path4241-3"
       inkscape:connector-curvature="0" />
    <path
       style="fill:none;fill-rule:evenodd;stroke:#000000;stroke-width:1.25;stroke-linecap:butt;stroke-linejoin:miter;stroke-miterlimit:4;stroke-dasharray:none;stroke-opacity:1"
       d="m 229.00562,254.30153 27.36811,-2.38251 8.38701,0.71476 3.5845,1.85372 3.91965,3.62606 -1.76567,50.50918 -3.08998,3.2164 -4.03898,2.03704 -7.87935,0.9411 -26.48529,-2.38252 z"
       id="path4277-3"
       inkscape:connector-curvature="0"
       sodipodi:nodetypes="ccccccccccc" />
    <path
       style="fill:none;fill-rule:evenodd;stroke:#000000;stroke-width:1.25;stroke-linecap:butt;stroke-linejoin:miter;stroke-miterlimit:4;stroke-dasharray:none;stroke-opacity:1"
       d="m 449.4356,317.76485 -4.28572,-2.85714 -1.07142,-5.71429 1.07142,-9.64285 2.5,-6.78572 3.92858,-3.57143 3.92857,-2.85714 2.5,-2.14286"
       id="path4543"
       inkscape:connector-curvature="0" />
    <path
       style="fill:none;fill-rule:evenodd;stroke:#000000;stroke-width:1.25;stroke-linecap:butt;stroke-linejoin:miter;stroke-miterlimit:4;stroke-dasharray:none;stroke-opacity:1"
       d="m 446.13263,246.71163 -4.28572,2.85714 -1.07142,5.71429 1.07142,9.64285 2.5,6.78572 3.92858,3.57143 3.92857,2.85714 4.89911,2.14286"
       id="path4543-3"
       inkscape:connector-curvature="0"
       sodipodi:nodetypes="cccccccc" />
    <path
       style="fill:none;fill-rule:evenodd;stroke:#000000;stroke-width:1.25;stroke-linecap:butt;stroke-linejoin:miter;stroke-miterlimit:4;stroke-dasharray:none;stroke-opacity:1"
       d="m 405.66441,282.59625 -0.60094,35.25568 -1.80277,4.30904 -6.0093,2.35036 -5.40836,0.39172 -33.05117,-1.95864 -9.61488,-1.56691 -6.61024,-2.74211 -3.00464,-4.70075 -1.20187,-19.5865 0,-11.36017"
       id="path4241-3-1"
       inkscape:connector-curvature="0" />
    <path
       style="fill:none;fill-rule:evenodd;stroke:#000000;stroke-width:1.25;stroke-linecap:butt;stroke-linejoin:miter;stroke-miterlimit:4;stroke-dasharray:none;stroke-opacity:1"
       d="m 285.31948,240.16025 2.05439,-0.21026 46.70459,0.67201 2.24738,1.11934 1.32404,1.7378 0,4.64286 -0.71428,6.42857 -3.57143,3.21428 -44.28571,-0.35714 -4.28572,-1.07143 -0.31078,-14.29603 z"
       id="path4579"
       inkscape:connector-curvature="0"
       sodipodi:nodetypes="cccccccccccc" />
    <path
       style="fill:none;fill-rule:evenodd;stroke:#000000;stroke-width:1.25;stroke-linecap:butt;stroke-linejoin:miter;stroke-miterlimit:4;stroke-dasharray:none;stroke-opacity:1"
       d="m 283.97204,329.4042 2.05439,0.21026 46.70459,-0.67201 2.24738,-1.11934 1.32404,-1.7378 0,-4.64286 -0.71428,-6.42857 -3.57143,-3.21428 -44.28571,0.35714 -4.28572,1.07143 -0.31078,14.29603 z"
       id="path4579-0"
       inkscape:connector-curvature="0"
       sodipodi:nodetypes="cccccccccccc" />
    <path
       style="fill:#ff44ff;fill-opacity:0;stroke:#86a41d;stroke-width:0.63134533;stroke-linejoin:round;stroke-miterlimit:4;stroke-dasharray:none;stroke-opacity:0"
       d="m 370.17063,322.7764 c -15.05201,-1.00612 -18.84609,-1.55944 -23.63973,-3.44755 -3.08625,-1.21561 -3.58144,-1.61114 -4.8564,-3.87901 -1.35612,-2.41224 -1.44553,-2.98928 -1.99558,-12.87945 -0.731,-13.14379 -0.6941,-24.9145 0.11677,-37.25121 0.62284,-9.47604 0.67716,-9.77861 2.1255,-11.83934 3.02685,-4.30667 8.63389,-5.53731 31.78497,-6.9762 20.22682,-1.25714 21.1986,-1.25341 25.31321,0.0973 3.14554,1.03261 3.43094,1.25363 4.40246,3.40927 1.01345,2.24866 1.03898,3.09615 1.04339,34.62995 0.005,38.1979 0.26692,36.16811 -4.89953,38.02081 -3.877,1.39029 -9.96455,1.41419 -29.39506,0.11541 z"
       id="path4693"
       inkscape:connector-curvature="0" />
    <path
       style="fill:#fff252;fill-opacity:1;stroke:#86a41d;stroke-width:0.7294277;stroke-linejoin:round;stroke-miterlimit:4;stroke-dasharray:none;stroke-opacity:0"
       d="m 454.23918,279.83361 c -1.6504,-0.74407 -4.79021,-2.75303 -6.97735,-4.46434 -3.76256,-2.94399 -4.06624,-3.36576 -5.64205,-7.83616 -1.44487,-4.09891 -1.67128,-5.65095 -1.70944,-11.71816 -0.0428,-6.81205 -0.005,-7.02183 1.45388,-8.08627 0.82383,-0.60105 1.76799,-1.09849 2.09815,-1.10544 1.30816,-0.0276 9.17667,12.76091 10.69362,17.38002 1.32662,4.03955 3.72541,16.57472 3.25688,17.01917 -0.0951,0.0903 -1.52329,-0.44473 -3.17369,-1.18882 z"
       id="path4174"
       inkscape:connector-curvature="0" />
    <path
       style="fill:#fff252;fill-opacity:1;stroke:#86a41d;stroke-width:0.69693267;stroke-linejoin:round;stroke-miterlimit:4;stroke-dasharray:none;stroke-opacity:0"
       d="m 447.15314,317.58423 c -0.61993,-0.46617 -1.4402,-1.02444 -1.8228,-1.2406 -2.31712,-1.30906 -1.84421,-13.22644 0.79879,-20.13039 1.33678,-3.49186 1.78987,-4.04278 6.02517,-7.32583 l 4.57969,-3.55002 0.19273,1.81006 c 0.28324,2.66038 -0.96681,13.2064 -2.23728,18.87471 -1.12104,5.00166 -4.58667,12.46004 -5.77447,12.4272 -0.34907,-0.009 -1.14189,-0.39895 -1.76183,-0.86513 z"
       id="path4176"
       inkscape:connector-curvature="0" />
    <path
       style="fill:none;fill-rule:evenodd;stroke:#000000;stroke-width:1px;stroke-linecap:butt;stroke-linejoin:miter;stroke-opacity:0"
       d="m 482.85292,243.23002 c 0.33671,0.67343 0.67343,1.34687 1.01015,2.0203 6.1525,5.54957 10.47177,12.71274 15.65736,20.20305"
       id="path5662"
       inkscape:connector-curvature="0" />
    <path
       style="fill:#ffffff;fill-rule:evenodd;stroke:#ffffff;stroke-width:1px;stroke-linecap:butt;stroke-linejoin:miter;stroke-opacity:1"
       d="m 416.18285,255.35185 15.65736,7.07106 5.55584,5.55584"
       id="path5670"
       inkscape:connector-curvature="0" />
    <path
       style="fill:#ffffff;fill-rule:evenodd;stroke:#ffffff;stroke-width:1px;stroke-linecap:butt;stroke-linejoin:miter;stroke-opacity:1"
       d="m 418.12927,309.59648 15.65736,-7.07106 5.55584,-5.55584"
       id="path5670-4"
       inkscape:connector-curvature="0" />
  </g>
</svg>
